<svg width="8" height="15" viewBox="0 0 8 15" fill="none" xmlns="http://www.w3.org/2000/svg">
<path d="M2.994 0.772803C3.57892 0.215838 4.41091 0.027719 5.19576 0.00427243C6.02582 -0.00319115 6.85555 0.00132346 7.68561 0.00165113C7.68888 0.877294 7.68918 1.75326 7.68528 2.62887C7.14885 2.62792 6.61205 2.63018 6.07562 2.62792C5.73546 2.60673 5.38617 2.86457 5.32435 3.20178C5.31619 3.78769 5.3214 4.37393 5.32173 4.95987C6.1085 4.96311 6.89527 4.95889 7.682 4.96184C7.62441 5.80945 7.51926 6.6532 7.39591 7.49367C6.70096 7.50019 6.00561 7.49302 5.31069 7.49728C5.30451 9.99721 5.31393 12.4971 5.30582 14.9971C4.27358 15.0013 3.24073 14.9951 2.20854 15C2.18899 12.4997 2.21014 9.9982 2.1978 7.4976C1.69421 7.49236 1.19032 7.50121 0.686768 7.49338C0.688697 6.65291 0.687422 5.81247 0.687714 4.97229C1.19094 4.96614 1.69453 4.9736 2.1978 4.96872C2.21309 4.15166 2.18247 3.33365 2.21374 2.51728C2.26421 1.87075 2.51061 1.21938 2.994 0.772803Z" fill="#0F0F0F"/>
</svg>
