<svg width="15" height="15" viewBox="0 0 15 15" fill="none" xmlns="http://www.w3.org/2000/svg">
<path d="M15 7.5C15 9.00701 15 10.0234 14.965 10.5841C14.8949 11.9509 14.5093 13.0023 13.7383 13.7383C12.9673 14.4743 11.9509 14.8949 10.5841 14.965C10.0234 15 8.97196 15 7.5 15C5.99299 15 4.97664 15 4.41589 14.965C3.04907 14.8949 1.99766 14.5093 1.26168 13.7383C0.525701 13.0023 0.10514 11.9509 0.0350467 10.5841C-3.39454e-08 10.0234 0 8.97196 0 7.5C0 6.02804 -3.39454e-08 4.97664 0.0350467 4.41589C0.10514 3.04907 0.490654 1.99766 1.26168 1.26168C1.99766 0.525701 3.04907 0.10514 4.41589 0.0350467C4.97664 -3.39454e-08 6.02804 0 7.5 0C9.00701 0 10.0234 -3.39454e-08 10.5841 0.0350467C11.9509 0.10514 13.0023 0.490654 13.7383 1.26168C14.4743 2.03271 14.8949 3.04907 14.965 4.41589C14.965 4.97664 15 5.99299 15 7.5ZM8.23598 1.33178H5.74766C5.50234 1.33178 5.18692 1.33178 4.8014 1.36682C4.41589 1.36682 4.06542 1.40187 3.78505 1.47196C3.50467 1.50701 3.25935 1.5771 3.08411 1.6472C2.76869 1.78738 2.48832 1.96262 2.20794 2.20794C1.96262 2.45327 1.78738 2.73364 1.6472 3.08411C1.5771 3.25935 1.50701 3.50467 1.47196 3.78505C1.43692 4.06542 1.40187 4.38084 1.36682 4.8014C1.36682 5.18692 1.33178 5.50234 1.33178 5.74766V9.25234C1.33178 9.49766 1.33178 9.81308 1.36682 10.1986C1.36682 10.5841 1.40187 10.9346 1.47196 11.215C1.54206 11.4953 1.5771 11.7407 1.6472 11.9159C1.78738 12.2313 1.96262 12.5117 2.20794 12.7921C2.45327 13.0374 2.73364 13.2126 3.08411 13.3528C3.25935 13.4229 3.50467 13.493 3.78505 13.528C4.06542 13.5631 4.38084 13.5981 4.8014 13.6332C5.22196 13.6682 5.50234 13.6682 5.74766 13.6682H9.25234C9.49766 13.6682 9.81309 13.6682 10.1986 13.6332C10.5841 13.6332 10.9346 13.5981 11.215 13.528C11.4953 13.493 11.7407 13.4229 11.9159 13.3528C12.2313 13.2126 12.5117 13.0374 12.7921 12.7921C13.0374 12.5467 13.2126 12.2664 13.3528 11.9159C13.4229 11.7407 13.493 11.4953 13.528 11.215C13.5631 10.9346 13.5981 10.6192 13.6332 10.1986C13.6332 9.81308 13.6682 9.49766 13.6682 9.25234V8.23598V7.5V6.76402V5.74766C13.6682 5.50234 13.6682 5.18692 13.6332 4.8014C13.6332 4.41589 13.5981 4.06542 13.528 3.78505C13.493 3.50467 13.4229 3.25935 13.3528 3.08411C13.2126 2.76869 13.0374 2.48832 12.7921 2.20794C12.5467 1.96262 12.2664 1.78738 11.9159 1.6472C11.7407 1.5771 11.4953 1.50701 11.215 1.47196C10.9346 1.43692 10.6192 1.40187 10.1986 1.36682C9.81309 1.36682 9.49766 1.33178 9.25234 1.33178H8.23598ZM10.1986 4.76636C10.9346 5.50234 11.3201 6.41355 11.3201 7.5C11.3201 8.58645 10.9346 9.46262 10.1986 10.2336C9.46262 10.9696 8.5514 11.3551 7.46495 11.3551C6.3785 11.3551 5.50234 10.9696 4.73131 10.2336C3.99533 9.49766 3.60981 8.58645 3.60981 7.5C3.60981 6.41355 3.99533 5.53738 4.73131 4.76636C5.46729 4.03037 6.3785 3.64486 7.46495 3.64486C8.5514 3.64486 9.46262 3.99533 10.1986 4.76636ZM9.25234 9.25234C9.74299 8.76168 9.98832 8.16589 9.98832 7.5C9.98832 6.83411 9.74299 6.20327 9.25234 5.71262C8.76168 5.22196 8.16589 4.97664 7.46495 4.97664C6.76402 4.97664 6.16822 5.22196 5.67757 5.71262C5.18692 6.20327 4.94159 6.79907 4.94159 7.5C4.94159 8.20093 5.18692 8.79673 5.67757 9.25234C6.16822 9.74299 6.76402 9.98832 7.46495 9.98832C8.16589 9.98832 8.76168 9.74299 9.25234 9.25234ZM12.1262 2.83879C12.3014 3.01402 12.4065 3.2243 12.4065 3.46963C12.4065 3.71495 12.3014 3.92523 12.1262 4.10047C11.9509 4.2757 11.7407 4.38084 11.4953 4.38084C11.25 4.38084 11.0397 4.2757 10.8645 4.10047C10.6893 3.92523 10.5841 3.71495 10.5841 3.46963C10.5841 3.2243 10.6893 3.01402 10.8645 2.83879C11.0397 2.66355 11.25 2.55841 11.4953 2.55841C11.7407 2.55841 11.9509 2.66355 12.1262 2.83879Z" fill="#0F0F0F"/>
</svg>
