<svg width="330" height="55" viewBox="0 0 330 55" fill="none" xmlns="http://www.w3.org/2000/svg">
<path d="M297.367 0.630742H304.632C306.201 3.44041 307.771 6.19274 309.34 9.00241C310.793 11.6401 312.362 14.2204 313.582 16.9727C314.745 14.335 316.198 11.8694 317.593 9.34645C319.22 6.4221 320.847 3.55509 322.475 0.630742H329.682V37.7872H323.347V20.7571C323.347 16.9727 323.172 13.1309 323.753 9.34645C323.114 11.1813 322.242 12.9589 321.254 14.6791C319.511 17.7755 317.767 20.8145 316.023 23.8535H311.025C309.921 21.9613 308.817 20.0691 307.771 18.1195C306.143 15.2525 304.342 12.4428 303.295 9.28911C303.702 11.7547 303.76 14.2777 303.702 16.7433V37.7298H297.309V0.630742H297.367ZM263.425 21.4452V0.630742H269.819V23.6241C269.819 25.0577 269.819 26.5485 270.225 27.982C270.574 29.1861 271.272 30.3903 272.376 31.0784C273.771 32.0532 275.572 32.2825 277.2 32.2252C278.943 32.2252 280.861 31.8811 282.198 30.677C283.419 29.5875 283.942 27.982 284.116 26.4338C284.232 25.0003 284.232 23.5668 284.232 22.1333V0.630742H290.567V22.3053C290.567 24.5989 290.683 26.9499 290.218 29.1861C289.754 31.5944 288.591 34.0027 286.673 35.6082C284.407 37.5578 281.326 38.1885 278.42 38.4179H275.631C273.306 38.2459 270.923 37.8445 268.889 36.6404C266.564 35.3789 264.937 33.0853 264.239 30.6196C263.193 27.6953 263.425 24.5416 263.425 21.4452ZM235.819 0.630742H257.846V6.59412H242.27V15.4818H257.265V21.4452H242.27V31.7665H257.846V37.7298H235.819V0.630742ZM173.689 0.630742H180.082V24.6563C180.082 26.5485 180.315 28.5554 181.535 30.1036C182.581 31.4797 184.325 32.0532 186.01 32.2252C187.754 32.3399 189.672 32.2825 191.241 31.4798C192.52 30.849 193.45 29.7022 193.857 28.3834C194.496 26.6058 194.38 24.6563 194.38 22.8214V0.630742H200.773V24.1402C200.773 25.9751 200.715 27.8673 200.308 29.6449C199.785 32.0532 198.564 34.3468 196.53 35.8949C194.263 37.6725 191.357 38.3032 188.568 38.4752H185.72C183.046 38.3032 180.257 37.7298 178.048 36.1243C176.014 34.6908 174.735 32.4545 174.154 30.1609C173.398 27.4659 173.573 24.6563 173.573 21.8466C173.689 14.7364 173.689 7.68358 173.689 0.630742ZM134.458 0.630742H141.723C143.583 3.89913 145.385 7.16752 147.245 10.3786C148.465 12.5002 149.686 14.6217 150.674 16.858C151.081 16.2273 151.313 15.5392 151.662 14.9084C152.824 12.6148 154.161 10.3786 155.381 8.1423C156.776 5.61934 158.229 3.15371 159.624 0.630742H166.889V37.7872H160.554V13.9337C160.554 12.4428 160.728 10.8946 160.903 9.40379C160.147 11.3534 159.275 13.2456 158.171 15.0231C156.486 17.9475 154.8 20.8718 153.173 23.7962H148.175L142.944 14.6791C142.188 13.3603 141.491 11.9841 140.91 10.5506C140.735 10.1492 140.619 9.69049 140.387 9.34645C140.677 11.1813 140.793 13.0162 140.793 14.8511V37.7298H134.517C134.458 25.4017 134.458 13.0162 134.458 0.630742ZM65.8194 0.630742H72.2126V15.8832C76.1647 10.8946 80.1168 5.96338 84.0108 0.974783C84.1271 0.802762 84.2433 0.573402 84.5339 0.630742H92.3219C92.2638 0.802762 92.2056 0.974783 92.0894 1.08946C87.3817 6.88082 82.6741 12.6722 77.9083 18.4635C82.7903 24.7136 87.6723 31.021 92.6125 37.2711C92.7287 37.4431 92.7868 37.5578 92.845 37.7872H84.8245C80.5818 32.2825 76.3972 26.7205 72.2126 21.2159C72.1545 26.7205 72.2126 32.2252 72.2126 37.7872H65.8194V0.630742ZM50.8246 0.630742H57.2178V23.6241C57.2178 25.287 57.2759 27.0072 56.9853 28.6127C56.5784 31.3077 55.2998 33.888 53.1494 35.6082C50.9409 37.5005 47.9187 38.2459 45.0127 38.4179H42.3392C39.0264 38.2459 35.7136 37.3858 32.8076 35.7803V29.3008C33.0982 29.3582 33.3307 29.4728 33.6213 29.5875C37.1084 31.3651 41.0024 32.5119 44.9546 32.1105C46.5238 31.9385 48.1511 31.4224 49.2554 30.2756C50.4178 29.0715 50.8827 27.3513 50.8827 25.7457C50.8246 17.3741 50.8246 9.00241 50.8246 0.630742ZM32.8076 0.630742H39.2007V23.7388H32.8657C32.8076 16.0552 32.8076 8.31432 32.8076 0.630742ZM6.65388 6.53678V18.1768H11.4197C13.2795 18.0622 15.3137 17.8328 16.8248 16.6286C18.1034 15.6539 18.5684 13.991 18.5684 12.4428C18.6265 10.952 18.2196 9.28911 17.0573 8.25698C15.8367 7.16752 14.2094 6.76614 12.6402 6.65146C10.606 6.47944 8.62994 6.53678 6.65388 6.53678ZM0.260742 0.630742H10.7222C13.3376 0.573402 16.0692 0.802762 18.5684 1.7202C20.8931 2.52297 22.9273 4.18583 23.9735 6.4221C25.2521 9.17443 25.3683 12.3281 24.9034 15.3098C24.4384 18.0622 22.753 20.5851 20.2538 21.9613C22.4624 27.2366 24.7871 32.5119 26.9376 37.8445H20.0213C18.1615 33.2 16.3017 28.4981 14.4419 23.7962C11.8846 24.1975 9.26925 23.9682 6.712 24.0255V37.8445H0.260742V0.630742ZM218.441 0H220.94C223.614 0.229361 226.345 0.745422 228.67 2.17893V8.65836C227.566 8.08496 226.52 7.51156 225.299 7.11018C222.8 6.25008 220.068 5.8487 217.453 6.25008C216.232 6.47944 215.012 6.82348 214.082 7.68358C212.338 9.23177 212.338 12.3855 214.256 13.819C215.942 15.1378 218.092 15.6539 220.068 16.3993C222.8 17.3167 225.59 18.3489 227.508 20.5278C229.426 22.6494 229.949 25.6311 229.658 28.326C229.426 31.021 228.147 33.6013 226.055 35.3215C223.614 37.3284 220.475 38.2459 217.337 38.4752H214.838C211.815 38.2459 208.677 37.5578 206.062 35.9523V29.4728C209.2 31.2504 212.745 32.4545 216.407 32.3972C218.209 32.3399 220.068 31.9958 221.521 30.849C223.265 29.4728 223.672 26.6058 222.219 24.8856C221.114 23.6241 219.429 23.0507 217.86 22.4773C215.244 21.5599 212.513 20.8145 210.188 19.2663C208.386 18.0622 206.991 16.2846 206.527 14.163C205.945 11.8121 206.003 9.23177 206.875 6.93816C207.573 5.10327 208.909 3.49775 210.595 2.40829C212.92 0.860102 215.709 0.17202 218.441 0ZM107.607 0H110.106C112.78 0.229361 115.512 0.802762 117.836 2.17893V8.60102C117.197 8.31432 116.558 7.91294 115.918 7.62624C113.129 6.36476 109.99 5.73402 106.91 6.1354C105.515 6.30742 104.12 6.76614 103.132 7.74092C102.028 8.83039 101.737 10.5506 102.202 11.9841C102.609 13.2456 103.771 14.1057 104.934 14.6217C108.247 16.1699 111.966 16.7433 114.988 18.8649C116.79 20.0691 118.127 21.9039 118.592 23.9682C119.289 26.9499 118.999 30.3329 117.255 32.9706C115.86 35.1495 113.594 36.6404 111.211 37.4431C109.7 37.9592 108.13 38.1885 106.561 38.3606H104.062C100.982 38.1312 97.9013 37.4431 95.2279 35.8376V29.3582C96.0996 29.7595 96.9133 30.2756 97.7851 30.6196C100.517 31.7665 103.481 32.5119 106.445 32.2252C108.072 32.0532 109.758 31.6518 110.92 30.505C112.257 29.3008 112.606 27.2366 111.908 25.6311C111.385 24.4269 110.165 23.6815 109.002 23.1654C107.317 22.42 105.573 21.9039 103.83 21.2732C101.389 20.4131 98.8313 19.2663 97.2039 17.1447C95.5185 15.0805 95.1116 12.2708 95.3441 9.69049C95.5766 7.2822 96.6227 4.98859 98.4244 3.32573C100.924 1.20414 104.353 0.229361 107.607 0Z" fill="white"/>
<path d="M5.29986 54.24C3.92653 54.24 2.92653 53.92 2.29986 53.28C1.6732 52.6267 1.35986 51.5667 1.35986 50.1V41.3H3.51986V50.28C3.51986 51.0667 3.65986 51.6134 3.93986 51.92C4.2332 52.2134 4.68653 52.36 5.29986 52.36C5.89986 52.36 6.34653 52.2134 6.63986 51.92C6.9332 51.6134 7.07986 51.0667 7.07986 50.28V41.3H9.21986V50.1C9.21986 51.54 8.89986 52.5934 8.25986 53.26C7.6332 53.9134 6.64653 54.24 5.29986 54.24Z" fill="white"/>
<path d="M49.0458 54V41.3H51.5258L55.2058 50.94C54.9925 49.42 54.8858 48.2267 54.8858 47.36V41.3H56.9458V54H54.4658L50.7658 44.4C50.9925 45.8134 51.1058 46.9934 51.1058 47.94V54H49.0458Z" fill="white"/>
<path d="M98.6061 54L95.4461 41.3H97.6861L99.1661 47.66C99.3661 48.5534 99.5594 49.8134 99.7461 51.44C99.8928 50.1734 100.099 48.9134 100.366 47.66L101.806 41.3H104.006L100.826 54H98.6061Z" fill="white"/>
<path d="M142.499 54V41.3H148.759V43.1H144.659V46.58H147.979V48.38H144.659V52.2H148.759V54H142.499Z" fill="white"/>
<path d="M188.288 54V41.3H190.448V54H188.288Z" fill="white"/>
<path d="M230.366 54V41.3H232.526V52.2H236.426V54H230.366Z" fill="white"/>
<path d="M275.374 54V41.3H281.634V43.1H277.534V46.58H280.854V48.38H277.534V52.2H281.634V54H275.374Z" fill="white"/>
<path d="M321.163 54V41.3H324.783C325.65 41.3 326.356 41.42 326.903 41.66C327.45 41.9 327.87 42.3 328.163 42.86C328.47 43.42 328.676 44.0667 328.783 44.8C328.89 45.5334 328.943 46.4867 328.943 47.66C328.943 49.94 328.663 51.5667 328.103 52.54C327.543 53.5134 326.436 54 324.783 54H321.163ZM324.623 43.06H323.323V52.24H324.623C325.463 52.24 326.023 51.9467 326.303 51.36C326.583 50.7734 326.723 49.54 326.723 47.66C326.723 46.3534 326.656 45.38 326.523 44.74C326.403 44.1 326.196 43.66 325.903 43.42C325.623 43.18 325.196 43.06 324.623 43.06Z" fill="white"/>
</svg>
