<svg width="19" height="15" viewBox="0 0 19 15" fill="none" xmlns="http://www.w3.org/2000/svg">
<path d="M18.9419 1.77531C18.2615 2.0772 17.5315 2.27996 16.7655 2.37235C17.5496 1.90374 18.1488 1.16251 18.4327 0.277128C17.6892 0.71906 16.8753 1.02998 16.0266 1.19632C15.3372 0.459598 14.3527 0 13.2645 0C11.1738 0 9.4773 1.69647 9.4773 3.78719C9.4773 4.08458 9.51111 4.37295 9.57531 4.65008C6.42795 4.49238 3.63771 2.98515 1.77116 0.693938C1.44447 1.25266 1.2575 1.90378 1.2575 2.59768C1.2575 3.91116 1.92663 5.06916 2.94269 5.74955C2.32199 5.72925 1.73735 5.55803 1.22707 5.27643V5.32376C1.22707 7.15765 2.53265 8.6874 4.26402 9.03659C3.94634 9.1222 3.61179 9.16953 3.26711 9.16953C3.02267 9.16953 2.7861 9.14473 2.55406 9.09967C3.03619 10.6046 4.43528 11.6995 6.09116 11.7311C4.79571 12.7449 3.16347 13.351 1.38928 13.351C1.08288 13.351 0.782109 13.3329 0.48584 13.2991C2.16094 14.3715 4.15141 15 6.29054 15C13.2555 15 17.0629 9.23023 17.0629 4.22649C17.0629 4.06201 17.0584 3.89757 17.0539 3.73536C17.7929 3.20143 18.4327 2.53456 18.9419 1.77531Z" fill="white"/>
</svg>
