<svg width="22" height="15" viewBox="0 0 22 15" fill="none" xmlns="http://www.w3.org/2000/svg">
<path d="M11.1914 0C12.0479 0.00240005 17.9167 0.0339007 19.4695 0.459009C19.9216 0.581598 20.3338 0.820391 20.6651 1.15165C20.9963 1.48291 21.2351 1.8951 21.3577 2.34725C21.7687 3.84848 21.7975 6.80744 21.799 7.40955V7.52025C21.799 7.62105 21.7924 11.0192 21.358 12.6708C21.2354 13.1229 20.9966 13.5352 20.6653 13.8664C20.3339 14.1977 19.9217 14.4364 19.4695 14.559C17.8813 14.9772 11.7788 14.9991 11.141 15H11.033C10.397 14.9991 4.30958 14.976 2.70455 14.5416C2.25236 14.419 1.84015 14.1801 1.50889 13.8488C1.17762 13.5175 0.938852 13.1053 0.816309 12.6531C0.3882 11.0438 0.375 7.70715 0.375 7.50945V7.49085C0.3753 7.29435 0.3882 3.97358 0.816009 2.34725C1.06321 1.42923 1.80453 0.688214 2.70455 0.441309C4.25708 0.0324006 10.1261 0.00240005 10.9823 0H11.1914ZM8.95157 4.28829V10.712L14.5281 7.50015L8.95157 4.28829Z" fill="#0F0F0F"/>
</svg>
