<svg width="38" height="29" viewBox="0 0 38 29" fill="none" xmlns="http://www.w3.org/2000/svg">
<path d="M0.616 9.5V4.42H2.8V4.932H1.208V6.636H2.488V7.14H1.208V9.5H0.616ZM4.55519 9.596C4.08585 9.596 3.75519 9.452 3.56319 9.164C3.37119 8.876 3.27519 8.33733 3.27519 7.548C3.27519 6.76933 3.37385 6.23333 3.57119 5.94C3.76852 5.64667 4.09652 5.5 4.55519 5.5C5.02452 5.5 5.35519 5.644 5.54719 5.932C5.73919 6.22 5.83519 6.75867 5.83519 7.548C5.83519 8.32133 5.73385 8.85733 5.53119 9.156C5.33385 9.44933 5.00852 9.596 4.55519 9.596ZM4.55519 9.084C4.83252 9.084 5.01919 8.98 5.11519 8.772C5.21119 8.55867 5.25919 8.15067 5.25919 7.548C5.25919 6.94533 5.21119 6.53733 5.11519 6.324C5.01919 6.11067 4.83252 6.004 4.55519 6.004C4.28319 6.004 4.09919 6.11067 4.00319 6.324C3.90719 6.53733 3.85919 6.94533 3.85919 7.548C3.85919 8.15067 3.90719 8.55867 4.00319 8.772C4.09919 8.98 4.28319 9.084 4.55519 9.084ZM8.69819 9.5L8.64219 9.3C8.40219 9.49733 8.13019 9.596 7.82619 9.596C7.10619 9.596 6.74619 9.16133 6.74619 8.292V5.596H7.31419V8.212C7.31419 8.5 7.35952 8.72133 7.45019 8.876C7.54085 9.02533 7.70885 9.1 7.95419 9.1C8.13552 9.1 8.33019 9.036 8.53819 8.908V5.596H9.10619V9.5H8.69819ZM10.1844 9.5V5.596H10.6084L10.6564 5.812C10.9071 5.604 11.1871 5.5 11.4964 5.5C12.2271 5.5 12.5924 5.93467 12.5924 6.804V9.5H12.0244V6.884C12.0244 6.60133 11.9764 6.38267 11.8804 6.228C11.7844 6.07333 11.6138 5.996 11.3684 5.996C11.1498 5.996 10.9471 6.06533 10.7604 6.204V9.5H10.1844ZM15.5658 9.5L15.5098 9.292C15.2644 9.49467 14.9924 9.596 14.6938 9.596C14.2618 9.596 13.9551 9.44933 13.7738 9.156C13.5924 8.86267 13.5018 8.32667 13.5018 7.548C13.5018 6.78 13.5924 6.24667 13.7738 5.948C13.9604 5.64933 14.2618 5.5 14.6778 5.5C14.9391 5.5 15.1818 5.57467 15.4058 5.724V4.42H15.9658V9.5H15.5658ZM14.8058 9.084C15.0084 9.084 15.2084 9.02267 15.4058 8.9V6.204C15.1924 6.07067 14.9924 6.004 14.8058 6.004C14.5284 6.004 14.3391 6.11067 14.2378 6.324C14.1364 6.53733 14.0858 6.94533 14.0858 7.548C14.0858 8.15067 14.1364 8.55867 14.2378 8.772C14.3391 8.98 14.5284 9.084 14.8058 9.084ZM18.2766 9.596C17.7912 9.596 17.4366 9.452 17.2126 9.164C16.9939 8.876 16.8846 8.34533 16.8846 7.572C16.8846 6.78267 16.9806 6.24133 17.1726 5.948C17.3646 5.64933 17.6792 5.5 18.1166 5.5C18.5646 5.5 18.8819 5.644 19.0686 5.932C19.2606 6.21467 19.3566 6.75333 19.3566 7.548V7.708H17.4686C17.4792 8.268 17.5459 8.63867 17.6686 8.82C17.7912 8.996 18.0099 9.084 18.3246 9.084C18.6286 9.084 18.9139 9.00667 19.1806 8.852V9.38C19.1166 9.428 18.9966 9.476 18.8206 9.524C18.6499 9.572 18.4686 9.596 18.2766 9.596ZM18.6126 6.268C18.5219 6.08667 18.3566 5.996 18.1166 5.996C17.8766 5.996 17.7112 6.08667 17.6206 6.268C17.5299 6.444 17.4792 6.76667 17.4686 7.236H18.7726C18.7619 6.76667 18.7086 6.444 18.6126 6.268ZM20.2469 9.5V5.596H20.6709L20.7429 5.924C21.0469 5.668 21.4176 5.54 21.8549 5.54V6.108C21.4443 6.108 21.1003 6.17467 20.8229 6.308V9.5H20.2469Z" fill="#0F0F0F"/>
<path d="M12.8637 18.64H10.8249V21.3105H8.70567V18.64H6.6675V25.3542H8.70567V22.7163H10.8249V25.36H12.8637V18.64ZM19.9535 24.0084V18.64H17.9147V25.3542H21.5962L21.9012 24.0032H19.9535V24.009V24.0084ZM16.4057 18.64H14.3675V25.3542H16.4057V18.64ZM24.668 18.64H22.6292V25.3542H24.668V18.64ZM34.7112 20.3579C34.7112 19.9916 35.0752 19.8247 35.6586 19.8247C36.3002 19.8247 36.9962 19.9648 37.4727 20.1637L37.3065 18.7047C36.7768 18.5863 36.3008 18.5 35.434 18.5C33.7855 18.5 32.6725 19.1516 32.6725 20.5242C32.6725 22.8832 35.8517 22.4095 35.8517 23.5021C35.8517 23.9221 35.546 24.1484 34.7917 24.1484C34.1227 24.1484 33.0902 23.9221 32.4747 23.6152L32.6993 25.1611C33.3147 25.3868 34.1495 25.5 34.8186 25.5C36.5202 25.5 37.9167 24.94 37.9167 23.2542C37.9225 21.0037 34.7112 21.4237 34.7112 20.3579ZM28.9648 23.7552C30.8642 23.7552 32.0623 22.77 32.0623 21.0579C32.0623 19.1732 30.779 18.5 28.6866 18.5C27.8781 18.5 26.8992 18.5537 26.2033 18.64V25.3542H28.2421V23.7558H28.9648V23.7552ZM30.051 21.0847C30.051 21.9568 29.6333 22.5437 28.574 22.5437H28.2368V19.7705C28.3547 19.7653 28.4667 19.7652 28.574 19.7652C29.5797 19.7652 30.051 20.2447 30.051 21.0847ZM2.76092 23.7552C4.66083 23.7552 5.859 22.77 5.859 21.0579C5.859 19.1732 4.57508 18.5 2.48267 18.5C1.67475 18.5 0.695333 18.5537 0 18.64V25.3542H2.03875V23.7558H2.76092V23.7552ZM3.85292 21.0847C3.85292 21.9568 3.43525 22.5437 2.37592 22.5437H2.03875V19.7705C2.15658 19.7653 2.26858 19.7652 2.37592 19.7652C3.37633 19.7652 3.85292 20.2447 3.85292 21.0847Z" fill="#0F0F0F"/>
</svg>
