<svg width="1388" height="163" viewBox="0 0 1388 163" fill="none" xmlns="http://www.w3.org/2000/svg">
<path d="M1250.74 2.6597H1281.3C1287.9 14.5075 1294.5 26.1134 1301.1 37.9612C1307.21 49.0836 1313.81 59.9642 1318.95 71.5702C1323.83 60.4478 1329.95 50.0507 1335.81 39.4119C1342.66 27.0806 1349.5 14.991 1356.35 2.6597H1386.66V159.34H1360.01V87.5284C1360.01 71.5702 1359.28 55.3702 1361.73 39.4119C1359.04 47.1493 1355.37 54.6448 1351.21 61.8985C1343.88 74.9552 1336.55 87.7701 1329.21 100.585H1308.19C1303.55 92.606 1298.9 84.6269 1294.5 76.406C1287.66 64.3164 1280.08 52.4687 1275.68 39.1702C1277.39 49.5672 1277.63 60.206 1277.39 70.603V159.099H1250.5V2.6597H1250.74ZM1107.98 90.4299V2.6597H1134.87V99.6179C1134.87 105.663 1134.87 111.949 1136.58 117.994C1138.05 123.072 1140.98 128.149 1145.63 131.051C1151.5 135.161 1159.07 136.128 1165.92 135.887C1173.25 135.887 1181.32 134.436 1186.94 129.358C1192.07 124.764 1194.27 117.994 1195.01 111.466C1195.5 105.421 1195.5 99.3761 1195.5 93.3313V2.6597H1222.14V94.0567C1222.14 103.728 1222.63 113.642 1220.68 123.072C1218.72 133.227 1213.83 143.382 1205.76 150.152C1196.23 158.373 1183.27 161.033 1171.05 162H1159.32C1149.54 161.275 1139.52 159.582 1130.96 154.504C1121.18 149.185 1114.34 139.513 1111.4 129.116C1107 116.785 1107.98 103.487 1107.98 90.4299ZM991.867 2.6597H1084.51V27.806H1019V65.2836H1082.07V90.4299H1019V133.952H1084.51V159.099H991.867V2.6597ZM730.546 2.6597H757.436V103.97C757.436 111.949 758.413 120.412 763.547 126.94C767.947 132.743 775.281 135.161 782.37 135.887C789.704 136.37 797.771 136.128 804.371 132.743C809.749 130.084 813.66 125.248 815.371 119.687C818.06 112.191 817.571 103.97 817.571 96.2328V2.6597H844.461V101.794C844.461 109.531 844.217 117.51 842.506 125.006C840.306 135.161 835.172 144.833 826.616 151.361C817.082 158.857 804.86 161.516 793.126 162.242H781.148C769.903 161.516 758.169 159.099 748.88 152.328C740.324 146.284 734.946 136.854 732.501 127.182C729.323 115.818 730.057 103.97 730.057 92.1224C730.546 62.1403 730.546 32.4 730.546 2.6597ZM565.539 2.6597H596.096C603.919 16.4418 611.497 30.2239 619.319 43.7642C624.453 52.7105 629.586 61.6567 633.742 71.0866C635.453 68.4269 636.431 65.5254 637.898 62.8657C642.787 53.194 648.409 43.7642 653.543 34.3343C659.41 23.6955 665.521 13.2985 671.388 2.6597H701.945V159.34H675.299V58.7552C675.299 52.4687 676.033 45.9403 676.766 39.6537C673.588 47.8746 669.921 55.8537 665.277 63.3493C658.187 75.6806 651.098 88.0119 644.254 100.343H623.231L601.23 61.8985C598.052 56.3373 595.118 50.5343 592.674 44.4896C591.94 42.797 591.452 40.8627 590.474 39.4119C591.696 47.1493 592.185 54.8866 592.185 62.6239V159.099H565.784C565.539 107.113 565.539 54.8866 565.539 2.6597ZM276.84 2.6597H303.729V66.9761C320.352 45.9403 336.975 25.1463 353.354 4.11045C353.842 3.38507 354.331 2.41791 355.554 2.6597H388.31C388.066 3.38507 387.822 4.11045 387.333 4.59403C367.532 29.0149 347.731 53.4358 327.686 77.8567C348.22 104.212 368.754 130.809 389.533 157.164C390.022 157.89 390.266 158.373 390.511 159.34H356.776C338.931 136.128 321.33 112.675 303.729 89.4627C303.485 112.675 303.729 135.887 303.729 159.34H276.84V2.6597ZM213.77 2.6597H240.66V99.6179C240.66 106.63 240.905 113.884 239.683 120.654C237.971 132.018 232.593 142.899 223.549 150.152C214.259 158.131 201.548 161.275 189.325 162H178.08C164.146 161.275 150.212 157.648 137.99 150.878V123.555C139.212 123.797 140.19 124.281 141.412 124.764C156.079 132.26 172.458 137.096 189.081 135.403C195.681 134.678 202.526 132.501 207.17 127.666C212.059 122.588 214.015 115.334 214.015 108.564C213.77 73.2627 213.77 37.9612 213.77 2.6597ZM137.99 2.6597H164.88V100.102H138.234C137.99 67.7015 137.99 35.0597 137.99 2.6597ZM27.9856 27.5642V76.6478H48.0308C55.8533 76.1642 64.4092 75.197 70.765 70.1194C76.143 66.009 78.0986 58.997 78.0986 52.4687C78.3431 46.1821 76.6319 39.1702 71.7428 34.8179C66.6093 30.2239 59.7646 28.5313 53.1644 28.0478C44.6085 27.3224 36.297 27.5642 27.9856 27.5642ZM1.0957 2.6597H45.0974C56.0978 2.41791 67.5871 3.38507 78.0986 7.25373C87.8768 10.6388 96.4327 17.6507 100.833 27.0806C106.211 38.6866 106.7 51.9851 104.744 64.5582C102.788 76.1642 95.6993 86.803 85.1878 92.606C94.477 114.851 104.255 137.096 113.3 159.582H84.21C76.3875 139.997 68.5649 120.17 60.7424 100.343C49.9865 102.036 38.986 101.069 28.2301 101.31V159.582H1.0957V2.6597ZM918.775 0H929.287C940.532 0.967164 952.021 3.14328 961.799 9.18806V36.5105C957.154 34.0925 952.754 31.6746 947.621 29.9821C937.109 26.3552 925.62 24.6627 914.619 26.3552C909.486 27.3224 904.352 28.7731 900.441 32.4C893.107 38.9284 893.108 52.2269 901.174 58.2716C908.264 63.8328 917.308 66.009 925.62 69.1522C937.109 73.0209 948.843 77.3731 956.91 86.5612C964.977 95.5075 967.177 108.081 965.955 119.445C964.977 130.809 959.599 141.69 950.799 148.943C940.532 157.406 927.331 161.275 914.131 162.242H903.619C890.907 161.275 877.707 158.373 866.706 151.603V124.281C879.907 131.776 894.819 136.854 910.219 136.612C917.797 136.37 925.62 134.919 931.731 130.084C939.065 124.281 940.776 112.191 934.665 104.937C930.02 99.6179 922.931 97.2 916.331 94.7821C905.33 90.9134 893.841 87.7702 884.063 81.2418C876.485 76.1642 870.618 68.6687 868.662 59.7224C866.218 49.809 866.462 38.9284 870.129 29.2567C873.062 21.5194 878.685 14.7493 885.774 10.1552C895.552 3.62687 907.286 0.725373 918.775 0ZM452.602 0H463.113C474.358 0.967164 485.848 3.38507 495.626 9.18806V36.2687C492.937 35.0597 490.248 33.3672 487.559 32.1582C475.825 26.8388 462.624 24.1791 449.668 25.8716C443.801 26.597 437.935 28.5313 433.779 32.6418C429.134 37.2358 427.912 44.4896 429.868 50.5343C431.579 55.8537 436.468 59.4806 441.357 61.6567C455.291 68.1851 470.936 70.603 483.647 79.5493C491.225 84.6269 496.848 92.3642 498.804 101.069C501.737 113.642 500.515 127.907 493.181 139.03C487.314 148.218 477.781 154.504 467.758 157.89C461.402 160.066 454.802 161.033 448.202 161.758H437.69C424.734 160.791 411.778 157.89 400.533 151.119V123.797C404.2 125.49 407.622 127.666 411.289 129.116C422.778 133.952 435.246 137.096 447.713 135.887C454.557 135.161 461.647 133.469 466.536 128.633C472.158 123.555 473.625 114.851 470.691 108.081C468.491 103.003 463.358 99.8597 458.469 97.6836C451.38 94.5403 444.046 92.3642 436.712 89.7045C426.445 86.0776 415.689 81.2418 408.845 72.2955C401.755 63.591 400.044 51.7433 401.022 40.8627C402 30.7075 406.4 21.0358 413.978 14.0239C424.49 5.07761 438.912 0.967164 452.602 0Z" fill="#0F0F0F"/>
</svg>
