<svg width="14" height="15" viewBox="0 0 14 15" fill="none" xmlns="http://www.w3.org/2000/svg">
<path d="M7.47409 0.0126569C8.2921 0 9.10543 0.0075004 9.91781 0C9.96703 0.95677 10.3111 1.93135 11.0115 2.6078C11.7104 3.30111 12.6991 3.61847 13.661 3.72582V6.24268C12.7595 6.21314 11.8539 6.02563 11.0358 5.63749C10.6796 5.47623 10.3477 5.26856 10.0228 5.05621C10.0186 6.88255 10.0303 8.70656 10.0111 10.5254C9.96235 11.3992 9.67405 12.2688 9.1659 12.9888C8.34835 14.1875 6.92937 14.9689 5.47195 14.9933C4.578 15.0444 3.68498 14.8006 2.92322 14.3515C1.66081 13.6071 0.772483 12.2444 0.643101 10.7818C0.626804 10.4721 0.624301 10.1618 0.6356 9.85178C0.748106 8.66249 1.33642 7.52478 2.24959 6.75083C3.28465 5.84937 4.73457 5.41998 6.09214 5.67405C6.1048 6.59988 6.06777 7.52478 6.06777 8.45061C5.44758 8.24997 4.72285 8.30622 4.18095 8.68265C3.78448 8.94383 3.48486 9.32811 3.32824 9.7763C3.19886 10.0932 3.2359 10.4452 3.2434 10.7818C3.392 11.8075 4.3783 12.6696 5.43117 12.5763C6.12917 12.5688 6.79812 12.1638 7.16189 11.5708C7.27955 11.3631 7.41127 11.1508 7.41831 10.9065C7.47972 9.78849 7.45534 8.67515 7.46284 7.55712C7.468 5.03746 7.45534 2.52482 7.47456 0.0131257L7.47409 0.0126569Z" fill="#0F0F0F"/>
</svg>
